# xmcd
#
# Track frame offsets:
#  150
#  10357
#  24609
#  37990
#  49893
#  61456
#  73935
#  86558
#  100410
#  111904
#  125281
#  137289
#  150005
#  163674
#  176029
#  187751
#  200923
#  211701
#  223887
#  237162
#  248161
#  262091
#
# Disc length: 3645 seconds
#
# Revision: 1
# Processed by: cddbd v1.5.1PL2 Copyright (c) Steve Scherf et al.
# Submitted via: Collectorz.com_Music_Collector 6.11
#
DISCID=380e3b16
DTITLE=Bullmoose Jackson - Bad Man Jackson That's Me
DYEAR=1990
DGENRE=Jump Blues - R&B
TTITLE0=Big Ten Inch Record
TTITLE1=Bad Man Jackson That's Me
TTITLE2=Jammin' And Jumpin'
TTITLE3=We Ain't Got Nothin' (But the Blues)
TTITLE4=Bullmoose Jackson Blues
TTITLE5=The Honey Dripper
TTITLE6=Hold Him Joe
TTITLE7=I Want a Bowlegged Woman
TTITLE8=Oh John
TTITLE9=Fare Thee Well, Deacon Jones, Fare Thee Well
TTITLE10=Nosey Joe
TTITLE11=Bearcat Blues
TTITLE12=Why Don't You Haul Off And Love Me
TTITLE13=Cherokee Boogie
TTITLE14=Meet Me with Your Black Dress on
TTITLE15=Hodge Podge
TTITLE16=Big Fat Mama's Are Back in Style Again
TTITLE17=(Let Me Love You) All Night Long
TTITLE18=Bootsie
TTITLE19=If You Ain't Lovin' (You Ain't Livin')
TTITLE20=I Wanna Hug Ya, Kiss Ya, Squeeze Ya
TTITLE21=Big Ten Inch Record
EXTD=
EXTT0=
EXTT1=
EXTT2=
EXTT3=
EXTT4=
EXTT5=
EXTT6=
EXTT7=
EXTT8=
EXTT9=
EXTT10=
EXTT11=
EXTT12=
EXTT13=
EXTT14=
EXTT15=
EXTT16=
EXTT17=
EXTT18=
EXTT19=
EXTT20=
EXTT21=
PLAYORDER=
